<svg width="106" height="24" viewBox="0 0 106 24" fill="none" xmlns="http://www.w3.org/2000/svg">
<rect width="24" height="24" rx="3.15789" fill="url(#paint0_linear_125_2219)"/>
<path d="M12.5176 6C14.3479 6 15.9877 6.81373 17.0958 8.09904C17.957 9.098 17.0229 10.3955 15.7039 10.3955C15.0793 10.3955 14.5146 10.061 13.988 9.72514C13.5631 9.45419 13.059 9.29688 12.5176 9.29688C11.0006 9.29712 9.77081 10.5269 9.77057 12.0439C9.77057 13.5612 11.0005 14.7918 12.5176 14.792C13.0588 14.792 13.5624 14.6346 13.9869 14.3638C14.5136 14.0278 15.0784 13.6934 15.703 13.6934C17.0224 13.6934 17.9568 14.9913 17.0952 15.9905C15.9871 17.2754 14.3476 18.0889 12.5176 18.0889C9.17962 18.0886 6.47369 15.382 6.47369 12.0439C6.47394 8.70608 9.17977 6.00025 12.5176 6Z" fill="white" fill-opacity="0.7"/>
<circle cx="16.0584" cy="9.02225" r="1.46793" fill="white"/>
<circle cx="16.0584" cy="14.894" r="1.46793" fill="white"/>
<path d="M33.02 10.58C33.02 9.44 33.2 8.4 33.6 7.44C33.98 6.5 34.52 5.68 35.22 5C35.9 4.32 36.7 3.8 37.66 3.42C38.6 3.06 39.62 2.86 40.74 2.86C41.66 2.86 42.46 2.98 43.16 3.18C43.84 3.4 44.4 3.64 44.88 3.9C45.4 4.22 45.88 4.56 46.28 4.92L45.06 6.84C44.7 6.56 44.3 6.28 43.86 6.04C43.46 5.84 43.02 5.66 42.52 5.48C42 5.32 41.46 5.24 40.86 5.24C40.06 5.24 39.34 5.38 38.74 5.64C38.1 5.92 37.58 6.28 37.16 6.74C36.72 7.22 36.38 7.78 36.16 8.42C35.92 9.08 35.82 9.78 35.82 10.54C35.82 11.3 35.94 12.02 36.18 12.68C36.4 13.36 36.74 13.94 37.18 14.42C37.6 14.92 38.12 15.3 38.76 15.58C39.38 15.88 40.08 16.02 40.88 16.02C41.52 16.02 42.12 15.92 42.68 15.72C43.22 15.52 43.68 15.3 44.08 15.06C44.52 14.78 44.94 14.46 45.32 14.08L46.7 15.98C46.26 16.46 45.76 16.84 45.18 17.2C44.66 17.5 44.04 17.78 43.32 18.04C42.58 18.28 41.74 18.42 40.78 18.42C39.62 18.42 38.58 18.22 37.64 17.86C36.68 17.46 35.86 16.92 35.18 16.24C34.5 15.56 33.96 14.72 33.6 13.76C33.2 12.8 33.02 11.74 33.02 10.58ZM49.08 14.4C49.42 14.72 49.8 14.98 50.22 15.22C50.56 15.42 50.96 15.6 51.44 15.76C51.9 15.94 52.4 16.02 52.94 16.02C53.22 16.02 53.5 15.98 53.78 15.88C54.04 15.8 54.28 15.68 54.5 15.52C54.7 15.36 54.86 15.16 54.98 14.9C55.1 14.66 55.16 14.38 55.16 14.06C55.16 13.58 54.98 13.2 54.64 12.88C54.28 12.58 53.82 12.3 53.3 12.04L51.58 11.28C50.94 11.04 50.36 10.74 49.84 10.36C49.3 10 48.86 9.54 48.52 8.98C48.16 8.46 47.98 7.76 47.98 6.92C47.98 6.3 48.1 5.74 48.36 5.22C48.6 4.74 48.96 4.3 49.42 3.94C49.86 3.6 50.38 3.34 51.02 3.14C51.62 2.96 52.3 2.86 53.02 2.86C53.76 2.86 54.42 2.94 54.98 3.1C55.52 3.28 55.98 3.46 56.36 3.66C56.8 3.9 57.16 4.18 57.48 4.46L56.38 6.54C56.1 6.3 55.78 6.1 55.42 5.9C55.1 5.74 54.74 5.6 54.32 5.44C53.88 5.32 53.4 5.24 52.88 5.24C52.24 5.24 51.72 5.38 51.34 5.64C50.94 5.92 50.74 6.3 50.74 6.78C50.74 7.34 50.92 7.78 51.28 8.1C51.62 8.46 52.06 8.76 52.6 9C53.12 9.28 53.68 9.52 54.32 9.76C54.92 10 55.5 10.3 56.04 10.64C56.56 11 57 11.44 57.36 11.96C57.7 12.5 57.88 13.18 57.88 14C57.88 14.62 57.76 15.2 57.54 15.72C57.3 16.26 56.98 16.72 56.56 17.12C56.12 17.52 55.6 17.84 55 18.08C54.38 18.3 53.68 18.42 52.9 18.42C52.06 18.42 51.3 18.32 50.66 18.12C50 17.9 49.46 17.66 49.02 17.4C48.48 17.08 48.02 16.74 47.66 16.36L49.08 14.4ZM60.4616 14.96C60.7016 15.2 60.9816 15.4 61.3016 15.56C61.5616 15.72 61.8816 15.84 62.2616 15.96C62.6216 16.08 63.0416 16.14 63.5216 16.14C63.7216 16.14 63.9216 16.12 64.1216 16.08C64.3216 16.06 64.5016 16 64.6616 15.92C64.8216 15.84 64.9416 15.74 65.0416 15.6C65.1216 15.48 65.1816 15.34 65.1816 15.14C65.1816 14.88 65.0416 14.66 64.7616 14.46C64.4816 14.28 64.1216 14.1 63.7216 13.92C63.2816 13.76 62.8416 13.56 62.3616 13.36C61.8616 13.18 61.4016 12.94 61.0016 12.66C60.5616 12.38 60.2216 12.04 59.9416 11.64C59.6616 11.26 59.5216 10.78 59.5216 10.18C59.5216 9.68 59.6216 9.24 59.8616 8.84C60.0616 8.48 60.3816 8.16 60.7816 7.88C61.1616 7.64 61.6216 7.44 62.1616 7.3C62.6816 7.18 63.2416 7.1 63.8616 7.1C64.5016 7.1 65.0616 7.18 65.5416 7.3C66.0016 7.44 66.3816 7.58 66.7016 7.72C67.0616 7.9 67.3616 8.1 67.6416 8.32L66.6016 10.3C66.3816 10.14 66.1416 10 65.8616 9.84C65.6216 9.72 65.3216 9.62 65.0016 9.5C64.6416 9.42 64.2616 9.36 63.8416 9.36C63.6416 9.36 63.4616 9.38 63.2816 9.4C63.0816 9.44 62.9016 9.48 62.7616 9.54C62.6016 9.62 62.4616 9.7 62.3816 9.82C62.2616 9.94 62.2216 10.1 62.2216 10.3C62.2216 10.56 62.3616 10.78 62.6416 10.94C62.9216 11.14 63.2616 11.3 63.7016 11.46C64.1016 11.64 64.5616 11.82 65.0616 12C65.5416 12.2 66.0016 12.42 66.4416 12.7C66.8416 12.98 67.2016 13.32 67.4816 13.7C67.7616 14.1 67.9016 14.6 67.9016 15.16C67.9016 15.64 67.8016 16.08 67.6016 16.48C67.4016 16.88 67.1016 17.22 66.7416 17.52C66.3616 17.8 65.9016 18.02 65.3816 18.18C64.8416 18.34 64.2416 18.42 63.5616 18.42C62.8416 18.42 62.2016 18.34 61.6816 18.18C61.1216 18.02 60.6616 17.84 60.3016 17.64C59.8616 17.4 59.4816 17.12 59.1616 16.84L60.4616 14.96ZM75.4616 18.42C74.5016 18.42 73.6616 18.26 72.9416 17.98C72.2016 17.68 71.6016 17.28 71.1216 16.78C70.6216 16.26 70.2416 15.66 70.0016 14.98C69.7416 14.3 69.6216 13.58 69.6216 12.8C69.6216 11.92 69.7416 11.14 70.0016 10.42C70.2416 9.74 70.6016 9.14 71.0816 8.64C71.5216 8.16 72.0816 7.78 72.7616 7.5C73.4016 7.24 74.1416 7.1 74.9416 7.1C75.8616 7.1 76.6816 7.28 77.3816 7.6C78.0616 7.94 78.6016 8.4 79.0416 8.96C79.4616 9.56 79.7616 10.22 79.9416 10.98C80.1016 11.76 80.1216 12.58 80.0416 13.46H72.4016C72.5416 14.42 72.9016 15.1 73.5016 15.5C74.0616 15.92 74.7616 16.12 75.6016 16.12C76.0816 16.12 76.5216 16.06 76.9216 15.92C77.3216 15.8 77.6616 15.66 77.9616 15.5C78.3016 15.32 78.6216 15.1 78.9016 14.86L79.9416 16.78C79.6016 17.08 79.2216 17.36 78.7816 17.6C78.3816 17.8 77.9216 18 77.3816 18.18C76.8216 18.34 76.1816 18.42 75.4616 18.42ZM74.9416 9.18C74.6416 9.18 74.3616 9.22 74.1016 9.3C73.8216 9.38 73.5616 9.52 73.3416 9.7C73.1016 9.9 72.9216 10.16 72.7616 10.46C72.5816 10.78 72.4616 11.18 72.4016 11.64H77.3816C77.2816 10.76 77.0016 10.12 76.5616 9.74C76.0816 9.38 75.5416 9.18 74.9416 9.18ZM89.8039 18.16V16.04C89.4039 16.7 88.8839 17.22 88.2839 17.6C87.6639 17.96 86.9639 18.16 86.1839 18.16C84.9639 18.16 84.0439 17.84 83.4039 17.2C82.7439 16.54 82.4239 15.5 82.4239 14.06V7.1H85.1439V13.5C85.1439 14.18 85.2639 14.7 85.5039 15.1C85.7439 15.5 86.1639 15.7 86.8039 15.7C87.0439 15.7 87.3239 15.68 87.6039 15.6C87.8839 15.54 88.1439 15.42 88.4239 15.24C88.6639 15.08 88.9239 14.84 89.1639 14.54C89.3839 14.26 89.5839 13.88 89.7839 13.42V7.1H92.5039V18.16H89.8039ZM97.9569 11.1L101.637 7.1H104.957L100.257 12.2L105.237 18.16H101.797L97.9569 13.28V18.16H95.2169V3.1H97.9569V11.1Z" fill="#15294B"/>
<defs>
<linearGradient id="paint0_linear_125_2219" x1="12" y1="0" x2="12" y2="24" gradientUnits="userSpaceOnUse">
<stop stop-color="#99DCFE"/>
<stop offset="1" stop-color="#6189FF"/>
</linearGradient>
</defs>
</svg>
